Coordinates
version=1
nRows=11
nColumns=40
inDegrees=yes

Units are S.I. units (second, meters, Newtons, ...)
Angles are in degrees.

endheader
time	pelvis_tilt	pelvis_list	pelvis_rotation	pelvis_tx	pelvis_ty	pelvis_tz	hip_flexion_r	hip_adduction_r	hip_rotation_r	knee_angle_r	knee_angle_r_beta	ankle_angle_r	subtalar_angle_r	mtp_angle_r	hip_flexion_l	hip_adduction_l	hip_rotation_l	knee_angle_l	knee_angle_l_beta	ankle_angle_l	subtalar_angle_l	mtp_angle_l	lumbar_extension	lumbar_bending	lumbar_rotation	arm_flex_r	arm_add_r	arm_rot_r	elbow_flex_r	pro_sup_r	wrist_flex_r	wrist_dev_r	arm_flex_l	arm_add_l	arm_rot_l	elbow_flex_l	pro_sup_l	wrist_flex_l	wrist_dev_l
     52.27000000	     -3.98422422	     -5.50937210	      1.70815667	      0.99215326	      0.93112576	      0.46854093	     13.12561307	      4.61023511	    -15.25182738	     13.86486592	     13.86486592	      7.24325498	     -0.71087402	     -5.25619440	     33.60613114	    -11.71905828	      1.47231913	     59.82736932	     59.82736932	     13.76541182	    -19.34350387	     20.14876646	    -11.35416792	      6.89691038	      3.73692665	     17.18406735	    -14.61450202	     -7.07181978	     43.35661027	     43.89838916	      0.00000000	      0.00000000	      8.49092471	     -7.49743037	      1.23819684	     38.98781737	     43.76846982	      0.00000000	      0.00000000
     52.28228571	     -4.12605809	     -5.44662489	      1.98019552	      0.99085898	      0.93140131	      0.46895248	     12.59036806	      4.61487807	    -15.36464334	     13.40892046	     13.40892046	      7.40610417	     -0.56625373	     -5.46384966	     34.66840952	    -11.42279607	      1.42030208	     56.97641361	     56.97641361	     13.73634081	    -19.32406423	     19.32731024	    -11.37774097	      6.79611991	      3.67322100	     19.02817438	    -14.98209461	     -6.14070861	     46.24383367	     43.88998229	      0.00000000	      0.00000000	      7.59005597	     -7.29199674	      0.78635082	     37.02560992	     43.98941110	      0.00000000	      0.00000000
     52.29457143	     -4.28099226	     -5.30496543	      2.22221016	      0.98957121	      0.93164930	      0.46930788	     12.09427986	      4.54074530	    -15.38592834	     13.00275381	     13.00275381	      7.62272021	     -0.51999158	     -5.48510245	     35.47628179	    -10.96506957	      1.37308694	     53.77144440	     53.77144440	     13.79955001	    -19.26358012	     19.34641324	    -11.38425861	      6.59549354	      3.52137214	     21.33789690	    -14.98809380	     -6.12313494	     47.87555330	     43.86134215	      0.00000000	      0.00000000	      6.39072667	     -7.33722204	      0.88859603	     35.91199696	     43.98579658	      0.00000000	      0.00000000
     52.30685714	     -4.40756113	     -5.29619694	      2.47512363	      0.98835240	      0.93174130	      0.46959614	     11.56425895	      4.58696968	    -15.60176313	     12.58061989	     12.58061989	      7.78904616	     -0.22601106	     -5.78944742	     36.03236706	    -10.58551763	      1.44227412	     50.25587775	     50.25587775	     13.20057592	    -19.19633382	     17.83263615	    -11.42747006	      6.60471299	      3.62276617	     22.96099208	    -15.60274161	     -4.87262257	     51.27321763	     43.81994249	      0.00000000	      0.00000000	      5.95963692	     -7.07452472	      0.84378199	     33.01652366	     44.14914002	      0.00000000	      0.00000000
     52.31914286	     -4.53723880	     -5.18505031	      2.68752080	      0.98717818	      0.93180272	      0.46979595	     11.08920334	      4.53043772	    -15.62952767	     12.26411050	     12.26411050	      8.04114776	     -0.17096335	     -5.85579696	     36.39078355	     -9.99842553	      1.63076088	     46.60989897	     46.60989897	     13.02180757	    -19.04337439	     17.87949126	    -11.44620629	      6.46065009	      3.47427256	     25.19236042	    -15.54497446	     -4.88472185	     52.98096660	     43.79433942	      0.00000000	      0.00000000	      4.81214119	     -7.11993235	      0.92193863	     31.94433319	     44.15070474	      0.00000000	      0.00000000
     52.33142857	     -4.68817545	     -5.10699339	      2.88458700	      0.98603030	      0.93173789	      0.46987048	     10.65349371	      4.49159439	    -15.73918281	     11.97022943	     11.97022943	      8.31452791	     -0.00545149	     -5.98166672	     36.61844702	     -9.40865217	      1.92737456	     42.86278251	     42.86278251	     12.62253812	    -18.74101919	     17.60997410	    -11.46219289	      6.36655323	      3.28794896	     27.31012481	    -15.47971081	     -4.73700883	     54.96050881	     43.75311449	      0.00000000	      0.00000000	      3.75619088	     -7.14444969	      1.00493682	     30.68151032	     44.15474209	      0.00000000	      0.00000000
     52.34371429	     -4.85739035	     -5.02659499	      3.04262376	      0.98502410	      0.93154854	      0.46991025	     10.25263650	      4.44462393	    -15.85585377	     11.72600863	     11.72600863	      8.60468937	      0.16985142	     -6.13886980	     36.73790264	     -8.83092835	      2.25596087	     39.12724083	     39.12724083	     12.19088303	    -18.20662983	     17.20309203	    -11.41363866	      6.26313552	      3.19497731	     29.30180554	    -15.49076764	     -4.53596429	     56.99054489	     43.70382089	      0.00000000	      0.00000000	      2.79219266	     -7.12310348	      1.07473889	     29.48245140	     44.15818174	      0.00000000	      0.00000000
     52.35600000	     -4.97915882	     -5.09010677	      3.20854623	      0.98419357	      0.93116713	      0.46981771	      9.81262363	      4.51162170	    -16.20393519	     11.52657887	     11.52657887	      8.93054380	      0.71546283	     -6.44955972	     36.67300731	     -8.49644155	      2.46702847	     35.29211799	     35.29211799	     10.49575970	    -17.40699822	     13.14369611	    -11.43767487	      6.37766646	      3.70296533	     30.17151204	    -16.52213985	     -3.33392003	     61.51106234	     43.62730169	      0.00000000	      0.00000000	      2.57399836	     -6.81808554	      1.01784471	     27.12082119	     44.30568883	      0.00000000	      0.00000000
     52.36828571	     -5.11948642	     -5.07206690	      3.34626987	      0.98341034	      0.93082426	      0.46970555	      9.39593539	      4.54106323	    -16.19932687	     11.32213305	     11.32213305	      9.24963265	      0.70340948	     -6.53127934	     36.70194397	     -8.10288832	      2.65334041	     31.94828177	     31.94828177	     10.36541307	    -15.91227170	     13.07840869	    -11.37034352	      6.35676865	      3.51026444	     32.15565986	    -16.19542854	     -3.46665583	     63.27720751	     43.60613656	      0.00000000	      0.00000000	      1.45996056	     -6.89267906	      1.03971963	     26.36386560	     44.31142246	      0.00000000	      0.00000000
     52.38057143	     -5.25093820	     -5.09027053	      3.48167026	      0.98283939	      0.93042208	      0.46953895	      8.93849410	      4.60289174	    -16.26187516	     11.09356455	     11.09356455	      9.60182670	      0.86563676	     -6.62074927	     36.72135443	     -7.83579159	      2.61358423	     28.90300678	     28.90300678	     10.25659933	    -13.98600823	     12.67159320	    -11.28827141	      6.35483961	      3.28063084	     33.92060393	    -15.88464189	     -3.38432669	     65.59227840	     43.56226133	      0.00000000	      0.00000000	      0.38702691	     -6.93953441	      1.04325204	     25.65832543	     44.32531647	      0.00000000	      0.00000000
     52.39285714	     -5.37529134	     -5.15820857	      3.58754915	      0.98240594	      0.92996309	      0.46926749	      8.46333358	      4.70649589	    -16.40502083	     10.86188083	     10.86188083	      9.98419891	      1.15097492	     -6.57633961	     36.69611932	     -7.69284647	      2.30620361	     26.08972420	     26.08972420	      9.68199643	    -11.99103423	     11.10311287	    -11.24550496	      6.42418793	      3.61674105	     34.80625990	    -16.37069555	     -3.01651720	     69.53716830	     43.53299448	      0.00000000	      0.00000000	     -0.42293805	     -6.89953906	      0.93362769	     25.16506848	     44.43402412	      0.00000000	      0.00000000
